<svg width="49" height="40" viewBox="0 0 49 40" fill="none" xmlns="http://www.w3.org/2000/svg">
<path d="M42.8219 6.32636C44.8762 5.09823 46.4134 3.1644 47.1463 0.885939C45.2159 2.03132 43.1039 2.83816 40.9015 3.27156C37.848 0.0415229 33.0102 -0.744522 29.0912 1.35265C25.1721 3.44982 23.1422 7.91102 24.1357 12.2434C16.2285 11.8465 8.86162 8.11137 3.86816 1.96761C1.26217 6.46253 2.59389 12.2086 6.91149 15.0989C5.3502 15.0487 3.82354 14.6259 2.45879 13.8659C2.45879 13.9072 2.45879 13.9484 2.45879 13.9897C2.45969 18.6719 5.75964 22.7051 10.349 23.633C8.90081 24.027 7.38176 24.085 5.90774 23.8026C7.19841 27.8068 10.8888 30.5499 15.095 30.6318C11.6113 33.366 7.30904 34.8488 2.88045 34.8416C2.09549 34.8427 1.31114 34.7975 0.531494 34.7064C5.02864 37.5962 10.2628 39.1301 15.6084 39.1247C23.0454 39.1758 30.1926 36.2438 35.4513 30.9847C40.71 25.7256 43.6413 18.5782 43.5896 11.1411C43.5896 10.7149 43.5797 10.2909 43.5598 9.86927C45.4859 8.47732 47.1481 6.75295 48.4686 4.77719C46.6742 5.57254 44.7709 6.09472 42.8219 6.32636Z" fill="#ffffff"/>
</svg>
