<svg width="48" height="48" viewBox="0 0 48 48" fill="none" xmlns="http://www.w3.org/2000/svg">
<path d="M0.671387 24.0049C0.674102 35.4835 9.02099 45.257 20.3577 47.0559V30.7483H14.4381V24.0049H20.3647V18.8716C20.0998 16.4392 20.9306 14.015 22.6319 12.2564C24.3332 10.4979 26.7285 9.5873 29.1684 9.7716C30.9196 9.79988 32.6665 9.95585 34.3951 10.2383V15.9759H31.4457C30.4304 15.8429 29.4096 16.1783 28.6709 16.8875C27.9322 17.5967 27.5555 18.603 27.6471 19.6229V24.0049H34.1127L33.0791 30.7506H27.6471V47.0559C39.9075 45.1183 48.5049 33.9211 47.2109 21.5761C45.9169 9.23113 35.1844 0.0601006 22.7886 0.707016C10.3929 1.35393 0.673357 11.5923 0.671387 24.0049Z" fill="#ffffff"/>
</svg>
