<svg width="41" height="42" viewBox="0 0 41 42" fill="none" xmlns="http://www.w3.org/2000/svg">
<path d="M21.3991 17.1644V25.2167H32.3808C31.3587 30.3337 27.0802 33.2737 21.3991 33.2737C14.782 33.181 9.46564 27.6929 9.46564 20.9549C9.46564 14.2168 14.782 8.72875 21.3991 8.63602C24.1496 8.63267 26.8154 9.60453 28.9387 11.3847L34.897 5.31802C28.0624 -0.799816 18.0808 -1.58669 10.4027 3.38706C2.72459 8.36082 -0.804776 17.8999 1.74178 26.7955C4.28834 35.6911 12.2988 41.8054 21.3991 41.7997C31.636 41.7997 40.9448 34.2187 40.9448 20.9537C40.929 19.6765 40.7753 18.405 40.4864 17.162L21.3991 17.1644Z" fill="#ffffff"/>
</svg>
